<?xml version="1.0" encoding="UTF-8" standalone="no"?>
<svg width="398px" height="78px" viewBox="0 0 398 78" version="1.1" xmlns="http://www.w3.org/2000/svg" xmlns:xlink="http://www.w3.org/1999/xlink" xmlns:sketch="http://www.bohemiancoding.com/sketch/ns">
    <!-- Generator: Sketch 3.3.3 (12072) - http://www.bohemiancoding.com/sketch -->
    <title>Group</title>
    <desc>Created with Sketch.</desc>
    <defs></defs>
    <g id="Welcome" stroke="none" stroke-width="1" fill="none" fill-rule="evenodd" sketch:type="MSPage">
        <g id="Stuff-Contact-Logo-" sketch:type="MSArtboardGroup" transform="translate(-972.000000, -1321.000000)">
            <g id="Group" sketch:type="MSLayerGroup" transform="translate(972.000000, 1321.000000)">
                <path d="M218.164,28.922 L230.582,45.857 L230.582,33.989 C230.582,32.892 230.371,32.638 229.695,32.638 L227.624,32.638 L227.624,28.922 L237.846,28.922 L237.846,32.638 L235.777,32.638 C235.101,32.638 234.889,32.892 234.889,33.989 L234.889,57.008 L230.074,57.008 L215.334,37.031 L215.334,51.897 C215.334,52.995 215.545,53.249 216.221,53.249 L218.291,53.249 L218.291,56.966 L208.028,56.966 L208.028,53.249 L210.097,53.249 C210.773,53.249 211.026,52.995 211.026,51.897 L211.026,33.989 C211.026,32.892 210.773,32.638 210.097,32.638 L208.028,32.638 L208.028,28.922 L218.164,28.922" id="Fill-13" fill="#FFFFFF" sketch:type="MSShapeGroup"></path>
                <path d="M239.065,46.618 C239.065,40.156 243.627,35.764 250.427,35.764 C257.141,35.764 261.577,40.114 261.577,46.618 C261.577,53.164 257.058,57.557 250.257,57.557 C243.5,57.557 239.065,53.207 239.065,46.618 L239.065,46.618 Z M254.607,46.998 L254.607,46.322 C254.607,41.549 253.299,39.691 250.342,39.691 C247.385,39.691 246.077,41.549 246.077,46.322 L246.077,46.998 C246.077,51.728 247.344,53.586 250.299,53.586 C253.299,53.586 254.607,51.728 254.607,46.998 L254.607,46.998 Z" id="Fill-14" fill="#FFFFFF" sketch:type="MSShapeGroup"></path>
                <path d="M272.005,39.649 C273.315,37.031 275.638,35.764 278.89,35.764 C283.282,35.764 285.605,38.34 285.605,43.747 L285.605,52.024 C285.605,53.08 285.9,53.249 286.408,53.249 L287.886,53.249 L287.886,56.966 L276.609,56.966 L276.609,53.249 L277.876,53.249 C278.383,53.249 278.636,53.08 278.636,52.024 L278.636,43.873 C278.636,41.212 277.791,40.199 275.764,40.199 C273.4,40.199 272.09,41.888 272.09,45.816 L272.09,52.024 C272.09,53.08 272.385,53.249 272.85,53.249 L274.117,53.249 L274.117,56.966 L262.882,56.966 L262.882,53.249 L264.361,53.249 C264.826,53.249 265.121,53.08 265.121,52.024 L265.121,41.466 C265.121,40.367 264.952,40.071 264.361,40.071 L262.882,40.071 L262.882,36.355 L266.938,36.355 C269.091,36.355 270.992,36.101 272.005,35.848 L272.005,39.649" id="Fill-15" fill="#FFFFFF" sketch:type="MSShapeGroup"></path>
                <path d="M289.065,50.461 L293.878,50.461 L293.878,53.755 C294.682,53.966 295.779,54.136 297.131,54.136 C299.243,54.136 300.552,53.418 300.552,51.813 C300.552,50.081 298.736,49.659 296.075,49.11 C292.611,48.434 288.853,47.252 288.853,42.774 C288.853,38.509 292.19,35.764 298.187,35.764 C301.481,35.764 304.607,36.693 306.126,37.411 L306.126,42.732 L301.439,42.732 L301.439,39.649 C300.848,39.395 299.581,39.185 298.567,39.185 C296.455,39.185 295.23,40.029 295.23,41.423 C295.23,43.197 297.089,43.408 299.665,43.915 C303.086,44.633 306.971,45.816 306.971,50.377 C306.971,54.77 303.551,57.557 297.469,57.557 C294.006,57.557 290.964,56.628 289.065,55.867 L289.065,50.461" id="Fill-16" fill="#FFFFFF" sketch:type="MSShapeGroup"></path>
                <path d="M315.415,47.927 C315.543,51.433 317.359,53.418 320.695,53.418 C323.441,53.418 325.003,51.982 325.848,49.912 L329.396,52.024 C328.045,55.15 325.13,57.557 319.682,57.557 C312.164,57.557 308.278,53.038 308.278,46.618 C308.278,40.114 312.629,35.764 319.259,35.764 C326.101,35.764 329.607,39.903 329.607,46.998 L329.607,47.927 L315.415,47.927 L315.415,47.927 Z M315.332,44.717 L322.85,44.717 C322.765,40.916 321.709,39.523 319.302,39.523 C316.852,39.523 315.543,41.043 315.332,44.717 L315.332,44.717 Z" id="Fill-17" fill="#FFFFFF" sketch:type="MSShapeGroup"></path>
                <path d="M339.993,39.649 C341.302,37.031 343.626,35.764 346.877,35.764 C351.27,35.764 353.593,38.34 353.593,43.747 L353.593,52.024 C353.593,53.08 353.888,53.249 354.395,53.249 L355.874,53.249 L355.874,56.966 L344.597,56.966 L344.597,53.249 L345.864,53.249 C346.371,53.249 346.624,53.08 346.624,52.024 L346.624,43.873 C346.624,41.212 345.779,40.199 343.752,40.199 C341.388,40.199 340.078,41.888 340.078,45.816 L340.078,52.024 C340.078,53.08 340.373,53.249 340.838,53.249 L342.105,53.249 L342.105,56.966 L330.87,56.966 L330.87,53.249 L332.349,53.249 C332.813,53.249 333.108,53.08 333.108,52.024 L333.108,41.466 C333.108,40.367 332.94,40.071 332.349,40.071 L330.87,40.071 L330.87,36.355 L334.925,36.355 C337.078,36.355 338.979,36.101 339.993,35.848 L339.993,39.649" id="Fill-18" fill="#FFFFFF" sketch:type="MSShapeGroup"></path>
                <path d="M357.053,50.461 L361.867,50.461 L361.867,53.755 C362.671,53.966 363.768,54.136 365.12,54.136 C367.232,54.136 368.541,53.418 368.541,51.813 C368.541,50.081 366.725,49.659 364.064,49.11 C360.6,48.434 356.842,47.252 356.842,42.774 C356.842,38.509 360.178,35.764 366.176,35.764 C369.47,35.764 372.596,36.693 374.115,37.411 L374.115,42.732 L369.428,42.732 L369.428,39.649 C368.837,39.395 367.57,39.185 366.556,39.185 C364.444,39.185 363.219,40.029 363.219,41.423 C363.219,43.197 365.078,43.408 367.655,43.915 C371.075,44.633 374.96,45.816 374.96,50.377 C374.96,54.77 371.54,57.557 365.458,57.557 C361.995,57.557 358.953,56.628 357.053,55.867 L357.053,50.461" id="Fill-19" fill="#FFFFFF" sketch:type="MSShapeGroup"></path>
                <path d="M383.404,47.927 C383.532,51.433 385.348,53.418 388.684,53.418 C391.43,53.418 392.992,51.982 393.837,49.912 L397.384,52.024 C396.034,55.15 393.119,57.557 387.671,57.557 C380.153,57.557 376.267,53.038 376.267,46.618 C376.267,40.114 380.617,35.764 387.248,35.764 C394.09,35.764 397.596,39.903 397.596,46.998 L397.596,47.927 L383.404,47.927 L383.404,47.927 Z M383.321,44.717 L390.839,44.717 C390.754,40.916 389.698,39.523 387.291,39.523 C384.841,39.523 383.532,41.043 383.321,44.717 L383.321,44.717 Z" id="Fill-20" fill="#FFFFFF" sketch:type="MSShapeGroup"></path>
                <path d="M177.868,39.894 C177.868,37.103 179.762,35.516 182.245,34.825 C181.63,33.827 181.273,32.906 181.273,31.829 C181.273,29.321 183.166,27.402 186.777,27.402 C189.669,27.402 191.384,29.04 191.384,31.318 C191.384,33.494 189.925,34.774 187.339,35.286 C187.39,35.362 187.468,35.44 187.544,35.516 L190.283,39.279 C190.335,39.356 190.361,39.408 190.411,39.484 C191.231,38.563 191.948,37.538 192.357,36.617 L190.693,36.617 L190.693,34.415 L196.964,34.415 L196.964,36.617 L195.428,36.617 C194.302,38.255 193.15,39.74 191.743,41.2 C192.357,41.865 192.869,42.147 193.509,42.147 C194.507,42.147 194.61,41.737 194.61,40.944 L194.61,40.099 L196.964,40.099 L196.964,41.302 C196.964,43.989 195.736,45.167 192.971,45.167 C191.46,45.167 190.258,44.706 188.901,43.452 C187.493,44.476 185.854,45.167 184.037,45.167 C179.838,45.167 177.868,42.914 177.868,39.894 L177.868,39.894 Z M187.416,41.839 C187.084,41.43 186.751,41.02 186.418,40.534 L184.267,37.615 C183.909,37.154 183.576,36.719 183.269,36.285 C182.245,36.949 181.528,37.974 181.528,39.408 C181.528,41.353 182.86,42.607 184.831,42.607 C185.752,42.607 186.623,42.301 187.416,41.839 L187.416,41.839 Z M186.188,33.853 C187.749,33.443 188.62,32.701 188.62,31.292 C188.62,30.217 188.03,29.475 186.904,29.475 C185.803,29.475 185.138,30.191 185.138,31.318 C185.138,32.239 185.496,32.957 186.188,33.853 L186.188,33.853 Z" id="Fill-21" fill="#FFFFFF" sketch:type="MSShapeGroup"></path>
                <path d="M177.279,47.564 L197.125,47.564 L197.125,51.876 L177.279,51.876 L177.279,47.564 Z" id="Fill-22" fill="#FFFFFF" sketch:type="MSShapeGroup"></path>
                <path d="M76.939,55.276 L76.939,48.477 L82.556,48.477 L82.556,52.784 C83.908,53.292 85.639,53.503 87.455,53.503 C90.032,53.503 91.848,52.362 91.848,50.166 C91.848,47.505 89.778,47.041 85.386,45.985 C80.233,44.717 76.854,42.732 76.854,37.622 C76.854,31.836 81.035,28.33 88.469,28.33 C92.27,28.33 95.269,29.09 97.972,30.231 L97.972,37.114 L92.397,37.114 L92.397,32.976 C91.341,32.68 89.905,32.469 88.511,32.469 C85.428,32.469 83.738,33.652 83.738,35.89 C83.738,38.255 85.512,38.763 89.863,39.776 C94.635,40.958 98.943,42.606 98.943,48.18 C98.943,53.798 95.057,57.557 87.371,57.557 C83.274,57.557 79.684,56.628 76.939,55.276" id="Fill-8" fill="#FFFFFF" sketch:type="MSShapeGroup"></path>
                <path d="M102.782,50.63 L102.782,40.071 L100.164,40.071 L100.164,36.734 C100.164,36.734 101.558,36.608 101.473,36.608 C103.12,36.271 104.219,35.637 104.514,33.863 L104.937,30.357 L109.709,30.357 L109.709,36.355 L113.468,36.355 L113.468,40.071 L109.54,40.071 L109.54,50.63 C109.54,52.742 110.343,53.375 111.99,53.375 C112.792,53.375 113.299,53.249 113.764,53.08 L113.764,56.923 C112.835,57.219 111.314,57.514 109.751,57.514 C104.683,57.514 102.782,55.613 102.782,50.63" id="Fill-9" fill="#FFFFFF" sketch:type="MSShapeGroup"></path>
                <path d="M130.486,57.43 L130.486,53.883 C129.178,56.332 126.854,57.557 123.771,57.557 C119.336,57.557 117.013,55.15 117.013,49.701 L117.013,41.296 C117.013,40.24 116.718,40.071 116.253,40.071 L114.732,40.071 L114.732,36.355 L124.025,36.355 L124.025,49.575 C124.025,52.278 124.996,53.164 126.897,53.164 C129.261,53.164 130.486,51.433 130.486,47.927 L130.486,41.296 C130.486,40.24 130.191,40.071 129.684,40.071 L127.868,40.071 L127.868,36.355 L137.455,36.355 L137.455,51.856 C137.455,52.953 137.624,53.249 138.215,53.249 L139.862,53.249 L139.862,56.966 L135.555,56.966 C133.4,56.966 131.501,57.177 130.486,57.43" id="Fill-10" fill="#FFFFFF" sketch:type="MSShapeGroup"></path>
                <path d="M140.577,36.355 L143.238,36.355 L143.238,35.426 C143.238,29.977 145.307,28.119 150.333,28.119 C152.065,28.119 153.585,28.583 154.178,28.879 L154.178,32.469 C153.966,32.301 153.079,32.216 152.699,32.216 C150.418,32.301 149.742,32.976 149.954,36.355 L153.501,36.355 L153.501,40.071 L150.08,40.071 L150.08,52.024 C150.08,53.08 150.376,53.249 150.882,53.249 L152.74,53.249 L152.74,56.966 L140.831,56.966 L140.831,53.249 L142.435,53.249 C142.943,53.249 143.238,53.08 143.238,52.024 L143.238,40.071 L140.577,40.071 L140.577,36.355" id="Fill-11" fill="#FFFFFF" sketch:type="MSShapeGroup"></path>
                <path d="M154.596,36.355 L157.257,36.355 L157.257,35.426 C157.257,29.977 159.326,28.119 164.352,28.119 C166.085,28.119 167.604,28.583 168.196,28.879 L168.196,32.469 C167.985,32.301 167.098,32.216 166.718,32.216 C164.437,32.301 163.761,32.976 163.972,36.355 L167.52,36.355 L167.52,40.071 L164.099,40.071 L164.099,52.024 C164.099,53.08 164.395,53.249 164.901,53.249 L166.759,53.249 L166.759,56.966 L154.85,56.966 L154.85,53.249 L156.454,53.249 C156.962,53.249 157.257,53.08 157.257,52.024 L157.257,40.071 L154.596,40.071 L154.596,36.355" id="Fill-12" fill="#FFFFFF" sketch:type="MSShapeGroup"></path>
                <path d="M33.359375,5.82557304 C33.359375,5.71809784 33.4177083,5.62001368 33.515625,5.56262402 C33.5604167,5.5386247 33.609375,5.52610332 33.6583333,5.52610332 C33.6989583,5.52610332 33.7375,5.5365378 33.775,5.55323298 L33.7958333,5.55218953 C33.6958333,5.53445091 34.240625,5.48749572 35.2614583,5.44262744 C35.703125,5.42280192 35.8697917,6.07600068 36.1447917,6.66972289 C36.7895833,6.88676018 37.503125,7.04953815 38.1916667,7.04953815 C39.209375,7.04953815 40.003125,6.68954841 40.5520833,5.98000342 C41.2885417,5.02837838 40.91875,4.17588094 40.7885417,3.93693124 C40.6479167,3.6802429 40.64375,3.41207663 40.7770833,3.18669176 C41,2.80791995 41.60625,2.57836127 42.3979167,2.57836127 C42.3979167,2.57836127 42.3979167,2.57314403 42.4,2.57210058 C43.4041667,2.56375299 44.4666667,2.80061581 45.36875,3.24095108 C46.1864583,3.64059186 47.89375,4.77273349 47.4625,5.84852891 C47.2802083,6.30138556 46.8979167,6.65511461 46.496875,6.93371536 C46.1697917,7.16118714 45.1697917,7.71630174 44.79375,7.84568936 C45.7,7.89681834 46.8479167,7.13301403 47.553125,6.56016079 C47.81875,6.3431235 48.1864583,5.78070476 48.1,5.44888813 C48.11875,5.52192952 53.15625,5.83809442 53.715625,5.93304824 C54.5739583,6.08017448 55.8708333,6.23147451 56.4864583,6.9431064 L56.5927083,7.06623332 L56.5479167,7.22170715 C56.4927083,7.41683202 56.4125,7.59526172 56.309375,7.75699624 C59.0083333,8.23280876 61.296875,8.9413103 62.671875,9.98162846 L62.9072917,10.1611016 L62.7322917,10.3990079 C62.4072917,10.8403866 61.3208333,11.6761888 59.540625,11.6761888 C59.3822917,11.6761888 58.81875,11.6386247 58.6583333,11.622973 C55.1260417,11.2921998 49.0177083,9.61955183 49.5416667,9.84389326 C54.8520833,12.1165241 58.740625,11.846271 58.7572917,11.8942696 C58.80625,12.0288744 58.8260417,12.1655662 58.8010417,12.2959973 L58.7770833,12.4180807 L58.675,12.4869483 C57.9760417,12.9617174 57.1135417,13.0284981 56.3166667,13.1912761 C56.1291667,13.2288402 55.9416667,13.2611871 55.7520833,13.2883168 C55.515625,13.3206637 52.3583333,13.0399761 45.9020833,10.792388 C45.6895833,10.7193466 46.8489583,11.641755 50.8385417,12.7905919 C53.0614583,13.4312692 54.9020833,13.5950907 54.9270833,13.607612 C54.99375,13.6441327 55.1666667,13.5637872 55.1760417,13.607612 C55.24375,13.9185597 54.2479167,14.3140267 54.0958333,14.3599384 C53.290625,14.6061923 52.434375,14.6927985 51.5947917,14.6927985 C51.321875,14.6927985 47.2979167,13.8131714 42.5958333,11.9735717 C46.6,14.2639412 50.78125,14.8795758 50.7645833,15.0100068 L50.7510417,15.1112213 L50.6791667,15.1832193 C50.2177083,15.6433801 48.6677083,15.8072015 47.3697917,15.8072015 C45.70625,15.8072015 44.065625,15.5567739 42.8677083,15.1216558 C42.4770833,14.9797468 42.09375,14.8639241 41.7135417,14.773144 C40.9729167,14.9933117 39.6020833,15.3251283 38.0395833,15.3251283 C37.3875,15.3251283 36.7708333,15.2666952 36.1895833,15.1519158 C36.0729167,15.18948 35.9572917,15.2260007 35.84375,15.2635648 C35.0510417,15.5202532 34.3666667,15.7425077 33.7135417,15.757116 L33.4083333,15.7644201 L33.4083333,10.5169176 C33.3770833,10.4699624 33.359375,10.4136161 33.359375,10.3530961 L33.359375,5.82557304" id="Fill-1" fill="#FFFFFF" sketch:type="MSShapeGroup"></path>
                <path d="M33.08125,5.72853233 C33.08125,5.62105713 33.0229167,5.52297297 32.925,5.4655833 C32.8802083,5.44054054 32.83125,5.42906261 32.78125,5.42906261 C32.7416667,5.42906261 32.703125,5.43949709 32.665625,5.45619227 L32.6447917,5.45514882 C32.74375,5.4374102 32.1989583,5.39045501 31.1791667,5.34558673 C30.7375,5.3257612 30.5708333,5.97895997 30.2958333,6.57268218 C29.65,6.78971947 28.9375,6.95249743 28.2489583,6.95249743 C27.23125,6.95249743 26.4364583,6.5925077 25.8875,5.88296271 C25.1520833,4.93133767 25.5208333,4.07884023 25.6520833,3.83989052 C25.7927083,3.58320219 25.796875,3.31503592 25.6635417,3.08965104 C25.4395833,2.71087923 24.8333333,2.48132056 24.0427083,2.48132056 C24.0427083,2.48132056 24.0427083,2.47505987 24.040625,2.47505987 C23.0364583,2.46671228 21.9739583,2.70253165 21.071875,3.14391037 C20.2541667,3.54355115 18.546875,4.67569278 18.978125,5.75044475 C19.159375,6.20434485 19.5427083,6.5580739 19.94375,6.83667465 C20.2708333,7.06414642 21.2697917,7.61926103 21.646875,7.74864865 C20.7395833,7.79977763 19.5916667,7.03597332 18.8864583,6.46207663 C18.6208333,6.24608279 18.2541667,5.68366404 18.340625,5.35184742 C18.3208333,5.42488881 13.284375,5.74105371 12.7239583,5.83600753 C11.865625,5.98313377 10.56875,6.1344338 9.95416667,6.84606569 L9.84791667,6.96919261 L9.89270833,7.12466644 C9.94791667,7.31979131 10.028125,7.49822101 10.13125,7.65995553 C7.43229167,8.13576805 5.14270833,8.84426959 3.76875,9.88458775 L3.53229167,10.0630174 L3.70833333,10.3019672 C4.03333333,10.7433459 5.11875,11.5791481 6.9,11.5791481 C7.05729167,11.5791481 7.621875,11.541584 7.78125,11.5259323 C11.3145833,11.1951591 17.421875,9.52251112 16.8989583,9.74685255 C11.5885417,12.0194834 7.7,11.7492302 7.68229167,11.7972289 C7.634375,11.9318337 7.61458333,12.0685255 7.63958333,12.1989566 L7.66354167,12.3199966 L7.765625,12.3899076 C8.46458333,12.8646767 9.32604167,12.9314574 10.1239583,13.0942354 C10.3104167,13.1317995 10.4989583,13.1641464 10.6875,13.1902326 C10.9239583,13.223623 14.08125,12.9429353 20.5385417,10.6953472 C20.75,10.6223059 19.590625,11.5447143 15.6020833,12.6935511 C13.3791667,13.3342285 11.5385417,13.4980499 11.5135417,13.5105713 C11.446875,13.547092 11.2739583,13.4667465 11.2645833,13.5105713 C11.196875,13.8204755 12.1927083,14.2159425 12.34375,14.2628977 C13.15,14.5091516 14.00625,14.5957578 14.8458333,14.5957578 C15.11875,14.5957578 19.1416667,13.7161307 23.8447917,11.876531 C19.840625,14.1669004 15.6583333,14.7825351 15.6760417,14.9129661 L15.6885417,15.0141806 L15.7614583,15.0861786 C16.221875,15.5463394 17.7729167,15.7101608 19.0697917,15.7101608 C20.7333333,15.7101608 22.375,15.4597332 23.5729167,15.0246151 C23.9635417,14.8816627 24.346875,14.7668833 24.7260417,14.6761033 C25.4677083,14.896271 26.8385417,15.2280876 28.4,15.2280876 C29.0520833,15.2280876 29.6697917,15.1696545 30.25,15.0548751 C30.3677083,15.0913958 30.4822917,15.12896 30.5958333,15.1654807 C31.3895833,15.4232125 32.0739583,15.645467 32.7260417,15.6600753 L33.0322917,15.666336 L33.0322917,10.4198768 C33.0625,10.3729217 33.08125,10.3165754 33.08125,10.2560554 L33.08125,5.72853233" id="Fill-2" fill="#FFFFFF" sketch:type="MSShapeGroup"></path>
                <path d="M33.08125,14.4538488 C33.08125,14.4538488 13.6083333,25.1711085 5.54895833,33.1994013 C4.19375,34.5485802 3.89270833,35.5659425 3.99375,37.1405063 C4.25520833,41.2235204 5.290625,51.3606226 5.5125,52.5345022 C5.715625,53.6123845 6.30625,55.1128635 7.178125,56.3691755 C9.45,59.6435169 15.2447917,66.3643688 25.4770833,71.1903182 C27.8052083,72.288026 30.3625,73.5505987 33.08125,73.5505987 C35.7989583,73.5505987 38.35625,72.288026 40.684375,71.1903182 C50.9166667,66.3643688 56.7114583,59.6435169 58.9833333,56.3691755 C59.8552083,55.1128635 60.4458333,53.6123845 60.65,52.5345022 C60.8708333,51.3606226 61.90625,41.2235204 62.1677083,37.1405063 C62.26875,35.5659425 61.9677083,34.5485802 60.6135417,33.1994013 C52.553125,25.1711085 33.08125,14.4538488 33.08125,14.4538488 Z" id="Fill-3" fill="#BA0D37" sketch:type="MSShapeGroup"></path>
                <path d="M33.2197917,13.9164728 C33.2197917,13.9164728 13.39375,24.8288573 5.1875,33.003233 C3.80729167,34.3774547 3.50208333,35.4125556 3.60416667,37.0152925 C3.87083333,41.1734348 4.925,51.4952275 5.15,52.6889326 C5.35729167,53.7866404 5.95833333,55.3142491 6.846875,56.5935169 C9.159375,59.9283784 15.0604167,66.7702703 25.478125,71.6838693 C27.8489583,72.8024461 30.4520833,74.0879747 33.2197917,74.0879747 C35.9885417,74.0879747 38.5916667,72.8024461 40.9625,71.6838693 C51.3802083,66.7702703 57.2802083,59.9283784 59.59375,56.5935169 C60.48125,55.3142491 61.0833333,53.7866404 61.290625,52.6889326 C61.515625,51.4952275 62.5697917,41.1734348 62.8354167,37.0152925 C62.9385417,35.4125556 62.6322917,34.3774547 61.253125,33.003233 C53.046875,24.8288573 33.2197917,13.9164728 33.2197917,13.9164728 L33.2197917,13.9164728 Z M59.6625,37.7644885 C59.425,41.4760349 58.4833333,50.6917722 58.2822917,51.7581765 C58.0979167,52.7379747 57.5604167,54.1017619 56.7677083,55.244338 C54.7020833,58.2212966 49.434375,64.3306876 40.1333333,68.7183886 C38.015625,69.7169689 35.6916667,70.8647622 33.2197917,70.8647622 C30.7489583,70.8647622 28.425,69.7169689 26.3072917,68.7183886 C17.00625,64.3306876 11.7375,58.2212966 9.671875,55.244338 C8.87916667,54.1017619 8.34270833,52.7379747 8.15729167,51.7581765 C7.95625,50.6917722 7.015625,41.4760349 6.77708333,37.7644885 C6.68541667,36.3328772 6.959375,35.4083818 8.190625,34.1812863 C15.5177083,26.8834075 33.2197917,17.1396853 33.2197917,17.1396853 C33.2197917,17.1396853 50.9229167,26.8834075 58.25,34.1812863 C59.48125,35.4083818 59.7541667,36.3328772 59.6625,37.7644885 L59.6625,37.7644885 Z" id="Fill-4" fill="#CDC9D3" sketch:type="MSShapeGroup"></path>
                <path d="M64.1208333,31.877352 C55.075,22.8682176 33.2197917,10.8382997 33.2197917,10.8382997 C33.2197917,10.8382997 11.365625,22.8682176 2.31979167,31.877352 C0.798958333,33.3924393 0.461458333,34.5339719 0.575,36.3005303 C0.86875,40.8833561 2.03020833,52.2611187 2.27916667,53.5779507 C2.50729167,54.788351 3.16979167,56.4714335 4.14895833,57.8821758 C6.69895833,61.5572015 13.2020833,69.0992473 24.6854167,74.5157886 C27.3,75.7481013 30.16875,77.1651043 33.2197917,77.1651043 C36.2708333,77.1651043 39.140625,75.7481013 41.7541667,74.5157886 C53.2375,69.0992473 59.7416667,61.5572015 62.2916667,57.8821758 C63.2697917,56.4714335 63.9333333,54.788351 64.1614583,53.5779507 C64.409375,52.2611187 65.571875,40.8833561 65.865625,36.3005303 C65.9791667,34.5339719 65.6416667,33.3924393 64.1208333,31.877352 L64.1208333,31.877352 Z M56.7677083,55.244338 C54.7020833,58.2212966 49.434375,64.3306876 40.1333333,68.7183886 C38.015625,69.7169689 35.6916667,70.8647622 33.2197917,70.8647622 C30.7489583,70.8647622 28.425,69.7169689 26.3072917,68.7183886 C17.00625,64.3306876 11.7375,58.2212966 9.671875,55.244338 C8.87916667,54.1017619 8.34270833,52.7379747 8.15729167,51.7581765 C7.95625,50.6917722 7.015625,41.4760349 6.77708333,37.7644885 C6.68541667,36.3328772 6.959375,35.4083818 8.190625,34.1812863 C15.5177083,26.8834075 33.2197917,17.1396853 33.2197917,17.1396853 C33.2197917,17.1396853 50.9229167,26.8834075 58.25,34.1812863 C59.48125,35.4083818 59.7541667,36.3328772 59.6625,37.7644885 C59.425,41.4760349 58.4833333,50.6917722 58.2822917,51.7581765 C58.0979167,52.7379747 57.5604167,54.1017619 56.7677083,55.244338 L56.7677083,55.244338 Z" id="Fill-5" fill="#FFFFFF" sketch:type="MSShapeGroup"></path>
                <path d="M33.2197917,13.9164728 C33.2197917,13.9164728 13.39375,24.8288573 5.1875,33.003233 C3.80729167,34.3774547 3.50208333,35.4125556 3.60416667,37.0152925 C3.87083333,41.1734348 4.925,51.4952275 5.15,52.6889326 C5.35729167,53.7866404 5.95833333,55.3142491 6.846875,56.5935169 C9.159375,59.9283784 15.0604167,66.7702703 25.478125,71.6838693 C27.8489583,72.8024461 30.4520833,74.0879747 33.2197917,74.0879747 C35.9885417,74.0879747 38.5916667,72.8024461 40.9625,71.6838693 C51.3802083,66.7702703 57.2802083,59.9283784 59.59375,56.5935169 C60.48125,55.3142491 61.0833333,53.7866404 61.290625,52.6889326 C61.515625,51.4952275 62.5697917,41.1734348 62.8354167,37.0152925 C62.9385417,35.4125556 62.6322917,34.3774547 61.253125,33.003233 C53.046875,24.8288573 33.2197917,13.9164728 33.2197917,13.9164728 L33.2197917,13.9164728 Z M59.6625,37.7644885 C59.425,41.4760349 58.4833333,50.6917722 58.2822917,51.7581765 C58.0979167,52.7379747 57.5604167,54.1017619 56.7677083,55.244338 C54.7020833,58.2212966 49.434375,64.3306876 40.1333333,68.7183886 C38.015625,69.7169689 35.6916667,70.8647622 33.2197917,70.8647622 C30.7489583,70.8647622 28.425,69.7169689 26.3072917,68.7183886 C17.00625,64.3306876 11.7375,58.2212966 9.671875,55.244338 C8.87916667,54.1017619 8.34270833,52.7379747 8.15729167,51.7581765 C7.95625,50.6917722 7.015625,41.4760349 6.77708333,37.7644885 C6.68541667,36.3328772 6.959375,35.4083818 8.190625,34.1812863 C15.5177083,26.8834075 33.2197917,17.1396853 33.2197917,17.1396853 C33.2197917,17.1396853 50.9229167,26.8834075 58.25,34.1812863 C59.48125,35.4083818 59.7541667,36.3328772 59.6625,37.7644885 L59.6625,37.7644885 Z" id="Fill-6" fill="#CDC9D3" sketch:type="MSShapeGroup"></path>
                <path d="M33.2208333,0.178429696 C30.1635417,0.178429696 27.6760417,2.34149846 27.6760417,5.00020527 L27.6760417,16.8339548 C27.6760417,19.4926616 30.1635417,21.6557304 33.2208333,21.6557304 C36.278125,21.6557304 38.765625,19.4926616 38.765625,16.8339548 L38.765625,5.00020527 C38.765625,2.34149846 36.278125,0.178429696 33.2208333,0.178429696" id="Fill-7" fill="#FFFFFF" sketch:type="MSShapeGroup"></path>
                <path d="M33.2114583,3.32129661 C31.4052083,3.32129661 29.9385417,4.86455696 29.940625,6.7625898 L29.9510417,15.210349 C29.953125,17.1083818 31.4239583,18.6516421 33.2291667,18.6516421 C35.034375,18.6526856 36.5020833,17.1083818 36.4989583,15.210349 L36.4895833,6.76363325 C36.4875,4.86560041 35.0166667,3.32129661 33.2114583,3.32129661" id="Fill-8" fill="#CDC9D3" sketch:type="MSShapeGroup"></path>
                <path d="M9.628125,36.6386076 C9.33333333,37.2354601 9.26041667,37.8396168 9.309375,38.6044646 C9.52395833,41.9455867 10.3708333,50.2399589 10.5520833,51.1999316 C10.71875,52.0816456 11.2020833,53.308741 11.915625,54.3375813 C13.7739583,57.0161136 18.515625,62.5150872 26.8864583,66.4634964 C28.7916667,67.3619056 30.884375,68.3949196 33.1083333,68.3949196 C35.3322917,68.3949196 37.4239583,67.3619056 39.3291667,66.4634964 C47.7010417,62.5150872 52.4427083,57.0161136 54.3010417,54.3375813 C54.7895833,53.6332535 55.1604167,52.8412761 55.4052083,52.124427 L9.628125,36.6386076" id="Fill-9" fill="#95092C" sketch:type="MSShapeGroup"></path>
                <path d="M31.2708333,12.6831167 L31.2729167,15.2155662 C31.275,16.3445775 32.15,17.2638556 33.2239583,17.2638556 C34.2979167,17.2638556 35.1708333,16.3445775 35.1697917,15.2155662 L35.16875,14.0291652 L31.2708333,12.6831167" id="Fill-12" fill="#AEA9B7" sketch:type="MSShapeGroup"></path>
                <path d="M17.704,51.168 C19.144,51.744 21.448,52.448 24.072,52.448 C28.68,52.448 31.272,50.336 31.272,47.008 C31.272,43.552 28.328,42.656 25.736,42.112 C23.784,41.728 22.376,41.568 22.376,40.224 C22.376,39.168 23.304,38.528 24.904,38.528 C25.672,38.528 26.632,38.688 27.08,38.88 L27.08,41.216 L30.632,41.216 L30.632,37.184 C29.48,36.64 27.112,35.936 24.616,35.936 C20.072,35.936 17.544,38.016 17.544,41.248 C17.544,44.64 20.392,45.536 23.016,46.048 C25.032,46.464 26.408,46.784 26.408,48.096 C26.408,49.312 25.416,49.856 23.816,49.856 C22.792,49.856 21.96,49.728 21.352,49.568 L21.352,47.072 L17.704,47.072 L17.704,51.168 Z M39.112,36 C38.344,36.192 36.904,36.384 35.272,36.384 L32.2,36.384 L32.2,39.2 L33.32,39.2 C33.768,39.2 33.896,39.424 33.896,40.256 L33.896,48.256 C33.896,49.056 33.672,49.184 33.32,49.184 L32.2,49.184 L32.2,52 L40.712,52 L40.712,49.184 L39.752,49.184 C39.4,49.184 39.176,49.056 39.176,48.256 L39.176,43.552 C39.176,40.576 40.168,39.296 41.96,39.296 C43.496,39.296 44.136,40.064 44.136,42.08 L44.136,48.256 C44.136,49.056 43.944,49.184 43.56,49.184 L42.6,49.184 L42.6,52 L51.144,52 L51.144,49.184 L50.024,49.184 C49.64,49.184 49.416,49.056 49.416,48.256 L49.416,41.984 C49.416,37.888 47.656,35.936 44.328,35.936 C41.864,35.936 40.104,36.896 39.112,38.88 L39.112,36 Z" id="sn" fill="#FFFFFF" sketch:type="MSShapeGroup"></path>
            </g>
        </g>
    </g>
</svg>